<svg xmlns="http://www.w3.org/2000/svg" viewBox="0 0 357.76 152.92"><defs><style>.cls-1{fill:#ffffff;}</style></defs><title>Asset 1</title><g id="Layer_2" data-name="Layer 2"><g id="Layer_1-2" data-name="Layer 1"><path class="cls-1" d="M29.42,16.06c-5.35,0-10.42,1.81-13,6.35h-.18V1h-15V68.09h15V40.17c0-2.45,0-10,8.43-10,8.07,0,8.07,8.07,8.07,10.52V68.09h15V40c0-9-.45-13.42-4.71-18.4C39.94,17.78,34.23,16.06,29.42,16.06Z"/><path class="cls-1" d="M80.64,16.06c-15.11.23-26,13.08-26,27A26.69,26.69,0,0,0,81.32,69.73a24.45,24.45,0,0,0,14.32-4.53,29.51,29.51,0,0,0,10.24-12.87H90.48C88.39,54.95,85.94,57,81.32,57c-5.89,0-10.88-3.54-11.78-9.52h37.71a21.05,21.05,0,0,0,.36-4.7C107.33,28.06,95.4,15.84,80.64,16.06ZM69.72,37.36c.63-3,3.63-8.61,11.42-8.61s10.79,5.62,11.42,8.61Z"/><path class="cls-1" d="M154.61,20.41c-2.72-2.36-8.07-4.35-12.87-4.35-9,0-12.15,4.62-13.69,7.07h-.18V17.78H113.82V68.09h15V40.72c0-3.08,0-10.52,8.61-10.52,7.89,0,7.89,6.89,7.89,10.42V68.09h15V36.64C160.41,26.76,157.33,22.77,154.61,20.41Z"/><path class="cls-1" d="M171.48,17.75v0h-5.62V29.21h5.62V68.09h15V29.21h6.35V17.78h-6.35s0-.41,0-.6c0-3.07,3.44-3.74,5.35-3.74a1.06,1.06,0,0,0,1-1.1V0S172.39-1.27,171.48,17.75Z"/><path class="cls-1" d="M201.31,13.52h14.13V0h-15v12.6A.91.91,0,0,0,201.31,13.52Z"/><rect class="cls-1" x="200.4" y="17.78" width="15.05" height="50.31"/><path class="cls-1" d="M247.76,16.06c-15.11.22-26,13.08-26,27a26.69,26.69,0,0,0,26.65,26.65,24.45,24.45,0,0,0,14.32-4.53A29.51,29.51,0,0,0,273,52.32H257.59c-2.08,2.63-4.53,4.71-9.16,4.71-5.89,0-10.88-3.54-11.78-9.52h37.71a21,21,0,0,0,.36-4.69C274.45,28.06,262.52,15.84,247.76,16.06Zm-10.93,21.3c.63-3,3.63-8.61,11.42-8.61s10.79,5.62,11.42,8.61Z"/><rect class="cls-1" x="281.25" y="1.01" width="15.05" height="67.08"/><path class="cls-1" d="M342.71,1V22c-1.63-1.63-5.89-6-14.78-6-12.78,0-24.93,9.7-24.93,26.74,0,15.14,10,26.92,25.2,26.92,10.15,0,13.78-5,15-7.07h.18v5.44h14.32V1ZM330.65,55.67c-7.07,0-12.6-5.17-12.6-13,0-5.8,4.08-12.6,12.78-12.6a12.34,12.34,0,0,1,12.69,12.6C343.53,48,340.08,55.67,330.65,55.67Z"/><path class="cls-1" d="M22.47,99.93c-.51-3.82-2.8-5.68-6-5.68s-5.51,2-5.51,5c0,3.9,3.39,4.92,7.29,6.1,3.65,1.1,14.16,4.07,14.16,15.26,0,8.31-5.77,15-15.77,15C10.68,135.62,0,131.89,0,119H8.82c.34,5.26,3.05,8.56,8,8.56,4,0,6.78-2.46,6.78-6.44,0-4.15-3.65-5.6-8.22-7.21-5.09-1.87-13.23-4.15-13.23-14.16,0-7,5.85-13.57,14.75-13.57,5.34,0,14.16,3.31,14.41,13.74Z"/><path class="cls-1" d="M51,134.44H42.21V95.52H35.85V87.47h6.36V76H51V87.47h7.72v8.05H51Z"/><path class="cls-1" d="M85.87,135.62a25.25,25.25,0,0,1-25.35-25c0-12.8,10.77-24.42,25.35-24.42,14.24,0,25.35,11.19,25.35,24.59C111.22,122.23,101.81,135.62,85.87,135.62Zm0-41.37a16.66,16.66,0,1,0,16.53,16.53A16.56,16.56,0,0,0,85.87,94.25Z"/><path class="cls-1" d="M116.81,134.44v-47H125v4.24h.17c3.73-5.26,9.75-5.43,12-5.51v9.07A16.55,16.55,0,0,0,130.8,97c-2.8,1.53-5.17,5.09-5.17,11.79v25.69Z"/><path class="cls-1" d="M180.82,134.44v-7.29h-.17c-3.39,5.77-9.58,8.48-15.94,8.48-15.85,0-24.93-12.12-24.93-24.5,0-11.45,8.05-24.93,24.93-24.93,6.53,0,12.55,2.71,15.94,7.88h.17V87.47h8.82v47ZM164.72,94.25c-10.85,0-16.11,9.41-16.11,16.79,0,8.48,6.7,16.53,16,16.53A16.41,16.41,0,0,0,181,111C181,101,173.79,94.25,164.72,94.25Z"/><path class="cls-1" d="M245.43,128.08c0,15.43-9.41,24.84-25.44,24.84-10.94,0-19.25-5.93-23.15-14.84h9.84c1.36,1.87,5,6.78,13.4,6.78,9.33-.09,16.53-4.41,16.53-16.62h-.17c-1.61,2.2-6.27,7.38-16.19,7.38-15.52,0-25.1-13.4-25.1-24.84,0-10.43,8.22-24.59,25.27-24.59,7,0,13.06,3.14,16.19,6.7V87.47h8.82ZM220.24,94.25A16.48,16.48,0,0,0,204,111c0,8.48,6.78,16.62,16.19,16.62,11.53,0,16.45-10.51,16.45-16.53C236.61,97.81,225.67,94.25,220.24,94.25Z"/><path class="cls-1" d="M259.75,114.77c2.2,9.07,9.5,12.8,15.43,12.8a15,15,0,0,0,13.4-7.88h8.82a23.94,23.94,0,0,1-22.55,15.94c-13.31,0-23.91-11.45-23.91-24.76,0-14.07,10.85-24.67,24.08-24.67a24.08,24.08,0,0,1,23.91,24.08c0,1.53-.17,3.9-.25,4.49ZM290.1,108c-.42-6.87-6.7-13.74-15.18-13.74s-14.75,6.87-15.18,13.74Z"/></g></g></svg>